<?xml version="1.0" standalone="no"?>
<!DOCTYPE svg PUBLIC "-//W3C//DTD SVG 20010904//EN"
 "http://www.w3.org/TR/2001/REC-SVG-20010904/DTD/svg10.dtd">
<svg version="1.0" xmlns="http://www.w3.org/2000/svg"
 width="1024.000000pt" height="1024.000000pt" viewBox="0 0 1024.000000 1024.000000"
 preserveAspectRatio="xMidYMid meet">
<metadata>
Created by potrace 1.14, written by Peter Selinger 2001-2017
</metadata>
<g transform="translate(0.000000,1024.000000) scale(0.100000,-0.100000)"
fill="#000000" stroke="none">
<path d="M8008 9925 c-3 -3 -34 -7 -69 -10 -35 -3 -95 -15 -134 -27 -38 -12
-76 -23 -84 -24 -8 -1 -17 -8 -21 -14 -4 -7 -10 -11 -14 -10 -12 2 -116 -34
-116 -41 0 -4 -16 -10 -35 -13 -19 -4 -35 -11 -35 -16 0 -6 -3 -9 -7 -8 -8 3
-84 -23 -138 -47 -16 -7 -95 -39 -175 -70 -80 -31 -154 -60 -165 -65 -85 -38
-164 -67 -169 -63 -3 4 -6 1 -6 -6 0 -7 -7 -11 -15 -8 -8 4 -17 2 -20 -3 -3
-5 -22 -14 -43 -21 -20 -7 -53 -19 -72 -27 -19 -9 -37 -16 -40 -17 -3 -1 -18
-7 -35 -14 -173 -70 -304 -121 -314 -121 -6 0 -11 -5 -11 -11 0 -5 -4 -8 -8
-5 -4 2 -21 -2 -37 -9 -17 -8 -75 -32 -130 -53 -55 -22 -109 -43 -120 -47 -11
-5 -22 -9 -25 -10 -3 -1 -18 -8 -35 -15 -16 -7 -32 -14 -35 -14 -7 -2 -65 -25
-115 -46 -22 -10 -87 -36 -145 -58 -146 -57 -164 -63 -170 -64 -3 0 -22 -9
-42 -19 -21 -11 -38 -17 -38 -13 0 4 -6 2 -13 -4 -15 -13 -129 -57 -139 -54
-5 1 -8 -2 -8 -6 0 -5 -6 -9 -12 -9 -7 -1 -80 -29 -163 -63 -82 -33 -157 -63
-165 -65 -12 -3 -121 -47 -215 -86 -110 -46 -166 -68 -170 -69 -4 -1 -58 -22
-100 -39 -11 -5 -69 -28 -130 -51 -60 -24 -123 -49 -140 -56 -114 -48 -292
-117 -302 -117 -7 0 -13 -4 -13 -9 0 -4 -3 -7 -7 -6 -5 0 -17 -2 -28 -7 -208
-85 -262 -106 -270 -109 -35 -9 -137 -50 -141 -57 -3 -5 -16 -9 -30 -9 -13 0
-24 -4 -24 -8 0 -5 -6 -9 -12 -9 -7 0 -31 -8 -53 -17 -48 -22 -48 -22 -207
-85 -70 -28 -134 -51 -143 -51 -8 0 -15 -4 -15 -10 0 -5 -6 -10 -12 -10 -14 0
-800 -311 -808 -320 -3 -3 -14 -7 -25 -8 -11 -2 -33 -10 -50 -17 -16 -8 -98
-41 -181 -74 -83 -32 -172 -70 -198 -84 -188 -100 -320 -301 -331 -502 -1 -37
-5 -68 -8 -71 -2 -3 -1 -21 3 -40 4 -19 5 -36 1 -39 -4 -2 -5 -27 -1 -55 4
-28 3 -53 -1 -55 -4 -3 -3 -21 1 -40 4 -19 4 -37 -1 -40 -4 -3 -6 -11 -4 -18
3 -7 7 -32 10 -57 5 -55 10 -86 20 -124 11 -42 70 -156 97 -190 39 -48 118
-128 118 -119 0 4 5 0 11 -9 5 -10 17 -18 24 -18 8 0 15 -4 15 -8 0 -14 105
-63 285 -132 61 -24 116 -48 122 -53 7 -5 13 -7 13 -4 0 3 17 -1 38 -10 20 -8
48 -20 62 -26 14 -6 27 -11 30 -12 3 -1 16 -6 30 -12 14 -6 45 -19 70 -28 76
-29 94 -37 122 -52 15 -7 29 -13 30 -13 5 2 40 -11 77 -27 18 -8 39 -16 45
-17 6 -1 17 -5 24 -9 6 -5 12 -5 12 0 0 4 4 2 8 -5 5 -7 17 -14 28 -17 19 -4
126 -45 214 -83 28 -12 751 -299 930 -369 63 -25 126 -50 140 -56 14 -6 28
-11 32 -11 3 -1 10 -4 14 -8 4 -5 16 -8 26 -8 10 0 18 -4 18 -10 0 -5 3 -9 8
-8 7 3 45 -11 107 -37 17 -7 84 -34 150 -59 66 -26 129 -51 140 -56 11 -5 45
-19 75 -30 30 -11 64 -24 75 -29 70 -29 128 -53 185 -75 36 -13 79 -30 95 -37
17 -7 35 -13 40 -14 6 -2 30 -12 55 -23 43 -19 260 -106 270 -108 3 0 16 -5
30 -11 14 -6 84 -34 155 -63 72 -29 141 -57 155 -63 14 -5 31 -11 38 -13 7 -1
33 -12 58 -23 24 -12 48 -21 54 -21 6 0 18 -5 28 -10 29 -17 215 -90 229 -90
7 0 13 -4 13 -10 0 -5 3 -9 8 -8 10 3 84 -22 98 -33 6 -5 14 -6 17 -2 4 3 7 1
7 -6 0 -7 5 -9 10 -6 6 3 10 1 10 -6 0 -7 3 -10 6 -6 3 3 31 -5 62 -18 32 -13
109 -44 172 -69 63 -25 129 -50 145 -57 17 -7 35 -13 40 -15 6 -1 105 -41 220
-87 116 -47 264 -106 330 -132 66 -26 125 -50 130 -54 6 -3 12 -6 15 -7 3 0
18 -6 33 -12 16 -7 34 -12 41 -12 6 0 16 -4 22 -8 5 -5 34 -18 64 -30 30 -12
69 -27 85 -33 17 -7 32 -13 35 -14 3 -1 19 -7 35 -14 17 -6 59 -23 95 -37 36
-15 74 -30 85 -35 133 -57 215 -75 332 -74 40 0 73 -4 73 -8 0 -5 6 -5 13 0 6
4 17 8 22 9 84 14 129 25 141 35 6 5 13 7 16 4 6 -6 155 67 186 92 114 90 185
182 235 303 30 73 49 123 52 130 1 3 6 14 10 25 40 95 167 414 170 427 2 9 8
26 14 37 6 10 13 34 16 53 14 86 16 104 16 113 0 35 -10 126 -15 143 -4 11 -9
31 -11 44 -6 28 -61 143 -84 172 -61 79 -209 206 -239 206 -7 0 -12 5 -12 12
0 6 -3 8 -7 5 -3 -4 -11 -3 -17 1 -6 5 -33 17 -61 27 -27 9 -66 24 -85 32 -52
22 -98 41 -120 48 -3 1 -18 7 -33 13 -16 7 -31 12 -34 12 -3 0 -19 6 -36 14
-38 16 -100 40 -107 41 -3 1 -23 9 -44 18 -21 10 -57 24 -80 31 -23 8 -75 28
-116 44 -41 17 -118 47 -170 67 -52 19 -104 40 -115 45 -11 4 -81 31 -155 60
-74 28 -146 56 -160 62 -29 13 -54 22 -95 37 -16 6 -43 16 -60 22 -16 7 -32
13 -35 14 -3 1 -22 9 -44 18 -21 9 -44 17 -52 17 -7 0 -16 5 -19 10 -3 6 -13
10 -21 10 -8 0 -33 8 -57 19 -23 10 -69 29 -102 41 -33 12 -72 28 -87 36 -16
9 -28 12 -28 8 0 -5 -5 -3 -12 4 -7 7 -17 12 -24 12 -6 0 -29 8 -50 17 -22 9
-41 17 -44 18 -3 1 -18 7 -35 14 -16 6 -66 25 -110 42 -44 17 -105 41 -137 54
-31 13 -59 21 -62 18 -3 -4 -6 -1 -6 5 0 7 -6 12 -12 12 -12 0 -144 48 -193
70 -19 8 -228 89 -270 104 -11 4 -20 6 -21 4 0 -2 -7 2 -15 8 -8 7 -30 17 -49
22 -19 6 -80 29 -135 52 -55 23 -104 43 -110 44 -5 2 -19 6 -30 10 -11 5 -38
15 -60 23 -22 8 -53 21 -70 28 -68 29 -191 75 -202 75 -6 0 -14 4 -17 9 -3 4
43 27 102 49 59 23 121 46 137 53 17 7 32 13 35 14 6 2 -2 -1 185 73 77 30
146 55 153 55 6 0 12 4 12 9 0 5 4 7 9 3 5 -3 12 -1 16 5 3 5 13 10 21 10 8 0
34 9 56 20 23 11 47 20 52 20 6 0 22 6 36 13 14 7 48 21 75 31 28 11 100 38
160 61 61 24 182 71 270 105 88 34 174 68 192 76 17 8 37 14 45 14 8 0 18 4
23 8 8 7 146 63 165 68 3 0 14 4 25 9 11 4 83 32 160 62 77 29 185 71 240 93
55 21 154 59 220 85 66 25 128 50 137 55 10 6 23 10 29 10 6 0 25 6 42 14 18
8 61 26 97 39 36 14 79 31 95 38 17 7 35 13 40 14 6 2 46 17 90 35 44 17 98
38 120 47 22 8 51 20 65 26 14 6 27 11 30 12 3 0 43 16 90 34 47 18 132 51
190 73 118 45 248 105 268 125 7 7 17 13 22 13 18 0 138 132 173 192 38 63 73
163 81 228 2 19 5 40 6 45 1 6 2 12 1 15 -1 3 -4 32 -5 65 -3 54 -56 234 -76
260 -4 6 -13 27 -19 47 -7 20 -20 54 -31 75 -10 21 -16 41 -13 45 2 5 -1 8 -6
8 -6 0 -10 3 -9 8 1 4 -4 21 -11 37 -7 17 -23 59 -37 95 -14 36 -34 84 -45
107 -10 24 -19 47 -19 52 0 8 -39 86 -71 141 -16 28 -74 95 -108 124 -13 12
-29 26 -35 32 -21 20 -166 99 -186 102 -3 0 -18 6 -35 12 -51 20 -106 31 -171
34 -28 2 -56 6 -61 9 -6 4 -12 4 -15 2z"/>
<path d="M1180 2240 c0 -3 -28 -5 -63 -4 -34 0 -78 -3 -97 -8 -19 -5 -45 -11
-57 -13 -37 -8 -135 -70 -177 -112 -53 -53 -99 -122 -112 -168 -1 -5 -9 -32
-18 -60 -23 -74 -22 -1110 1 -1199 14 -52 54 -134 83 -169 6 -7 18 -21 28 -32
24 -29 98 -85 111 -85 6 0 11 -4 11 -8 0 -13 124 -53 174 -56 26 -2 49 -6 52
-9 3 -3 16 -2 28 2 11 5 30 5 41 1 11 -4 25 -3 32 2 7 5 14 5 18 -2 4 -7 12
-7 27 1 14 7 23 8 30 1 7 -7 19 -7 34 -2 15 6 24 6 24 0 0 -6 10 -6 26 0 14 6
23 6 20 2 -5 -9 70 -6 86 4 6 4 9 3 5 -2 -3 -5 8 -9 24 -9 16 0 29 4 29 8 0 4
8 3 18 -2 10 -5 24 -6 32 -1 8 5 21 5 30 0 9 -5 23 -4 32 1 11 6 19 6 23 -1 4
-7 13 -7 26 0 10 6 19 7 19 3 0 -10 63 -8 79 2 6 3 11 2 11 -4 0 -7 8 -7 25
-1 13 5 26 6 29 2 5 -8 85 -6 93 2 3 3 16 1 29 -4 15 -6 26 -6 30 1 4 8 9 8
17 0 7 -7 16 -7 29 0 12 6 18 6 18 0 0 -7 8 -7 23 -2 12 5 31 5 42 1 11 -4 25
-3 32 2 7 6 14 5 18 -2 3 -6 11 -8 16 -4 15 9 69 11 75 3 2 -4 18 -4 34 1 17
5 30 6 30 2 0 -4 13 -7 29 -7 16 0 27 3 24 7 -2 5 7 4 21 -2 16 -6 27 -6 31 0
4 7 13 7 24 0 12 -6 22 -5 28 1 7 7 13 7 17 1 4 -7 17 -7 36 -2 17 5 30 6 30
2 0 -4 13 -7 29 -7 16 0 27 3 24 7 -2 5 7 4 21 -2 16 -6 27 -6 31 0 4 7 13 7
24 0 12 -6 22 -5 28 1 8 8 13 8 17 0 4 -7 15 -7 31 -1 13 5 26 6 29 2 5 -8 85
-6 93 2 3 3 15 1 28 -4 14 -5 26 -5 33 2 6 6 12 6 16 -1 5 -8 13 -8 27 -1 12
7 19 7 19 1 0 -7 8 -7 23 -2 12 5 31 5 42 1 11 -4 25 -3 32 2 7 5 14 5 18 -2
4 -7 12 -7 27 1 14 7 23 8 30 1 7 -7 19 -7 34 -2 15 6 24 6 24 0 0 -6 10 -6
26 0 14 6 23 6 20 2 -5 -9 70 -6 86 4 6 4 9 3 6 -2 -4 -5 7 -9 23 -9 16 0 29
4 29 8 0 4 8 3 18 -2 10 -5 24 -6 32 -1 8 5 21 5 30 0 9 -5 23 -4 32 1 11 6
19 6 23 -1 4 -7 13 -7 26 0 10 6 19 7 19 3 0 -10 63 -8 79 2 6 3 11 2 11 -4 0
-7 8 -7 25 -1 13 5 26 6 29 2 5 -8 85 -6 93 2 3 3 15 1 28 -4 14 -5 26 -5 33
2 6 6 12 6 16 -1 5 -8 13 -8 27 -1 12 7 19 7 19 1 0 -7 8 -7 23 -2 12 5 31 5
42 1 11 -4 25 -3 32 2 7 6 14 5 18 -2 3 -6 11 -8 16 -4 15 9 69 11 75 3 2 -4
18 -4 34 1 17 5 30 6 30 2 0 -4 13 -7 29 -7 16 0 27 3 24 7 -2 5 7 4 21 -2 16
-6 27 -6 31 0 4 7 13 7 24 0 12 -6 22 -5 28 1 7 7 13 7 17 1 4 -7 17 -7 36 -2
17 5 30 6 30 2 0 -4 13 -7 29 -7 16 0 27 3 24 7 -2 5 7 4 21 -2 16 -6 27 -6
31 0 4 7 13 7 24 0 12 -6 22 -5 28 1 8 8 13 8 17 0 4 -7 15 -7 31 -1 13 5 26
6 29 2 5 -8 85 -6 93 2 3 3 15 1 28 -4 14 -5 26 -5 33 2 6 6 12 6 16 -1 5 -8
13 -8 27 -1 12 7 19 7 19 1 0 -7 8 -7 23 -2 12 5 31 5 42 1 11 -4 25 -3 32 2
7 5 14 5 18 -2 4 -7 12 -7 27 1 14 7 23 8 30 1 7 -7 19 -7 34 -2 15 6 24 6 24
0 0 -6 10 -6 26 0 14 6 23 6 20 2 -5 -9 70 -6 86 4 6 4 9 3 6 -2 -4 -5 7 -9
23 -9 16 0 29 4 29 8 0 4 8 3 18 -2 10 -5 24 -6 32 -1 8 5 21 5 30 0 9 -5 23
-4 32 1 11 6 19 6 23 -1 4 -7 13 -7 26 0 10 6 19 7 19 3 0 -10 63 -8 79 2 6 3
11 2 11 -4 0 -7 8 -7 25 -1 13 5 26 6 29 2 5 -8 85 -6 93 2 3 3 15 1 28 -4 14
-5 26 -5 33 2 6 6 12 6 16 -1 5 -8 13 -8 27 -1 12 7 19 7 19 1 0 -7 8 -7 23
-2 12 5 31 5 42 1 11 -4 25 -3 32 2 7 6 14 5 18 -2 3 -6 11 -8 16 -4 15 9 69
11 75 3 2 -4 18 -4 34 1 17 5 30 6 30 2 0 -4 13 -7 29 -7 16 0 27 3 24 7 -2 5
7 4 21 -2 16 -6 27 -6 31 0 4 7 13 7 24 0 12 -6 22 -5 28 1 7 7 13 7 17 1 4
-7 17 -7 36 -2 17 5 30 6 30 2 0 -4 13 -7 29 -7 16 0 27 3 24 7 -2 5 7 4 21
-2 16 -6 27 -6 31 0 4 7 13 7 24 0 12 -6 22 -5 28 1 8 8 13 8 17 0 4 -7 15 -7
31 -1 13 5 26 6 29 2 5 -8 85 -6 93 2 3 3 15 1 28 -4 14 -5 26 -5 33 2 6 6 12
6 16 -1 5 -8 13 -8 27 -1 12 7 19 7 19 1 0 -7 8 -7 23 -2 12 5 31 5 42 1 11
-4 25 -3 32 2 7 5 14 5 18 -2 4 -7 12 -7 27 1 14 7 23 8 30 1 7 -7 19 -7 34
-2 15 6 24 6 24 0 0 -6 10 -6 26 0 14 6 23 6 20 2 -5 -9 70 -6 86 4 6 4 9 3 6
-2 -4 -5 7 -9 23 -9 16 0 29 4 29 8 0 4 8 3 18 -2 10 -5 24 -6 32 -1 8 5 21 5
30 0 9 -5 23 -4 32 1 11 6 19 6 23 -1 4 -7 13 -7 26 0 10 6 19 7 19 3 0 -10
63 -8 79 2 6 3 11 2 11 -4 0 -7 8 -7 25 -1 13 5 26 6 29 2 5 -8 85 -6 93 2 3
3 15 1 28 -4 14 -5 26 -5 33 2 6 6 12 6 16 -1 5 -8 13 -8 27 -1 12 7 19 7 19
1 0 -7 8 -7 23 -2 12 5 31 5 42 1 11 -4 25 -3 32 2 7 6 14 5 18 -2 3 -6 11 -8
16 -4 15 9 69 11 75 3 2 -4 18 -4 34 1 17 5 30 6 30 2 0 -4 13 -7 29 -7 16 0
27 3 24 7 -2 5 7 4 21 -2 16 -6 27 -6 31 0 4 7 13 7 24 0 12 -6 22 -5 28 1 7
7 13 7 17 1 4 -7 17 -7 36 -2 17 5 30 6 30 2 0 -4 13 -7 29 -7 16 0 27 3 24 7
-2 5 7 4 21 -2 16 -6 27 -6 31 0 4 7 13 7 24 0 12 -6 22 -5 28 1 8 8 13 8 17
0 4 -7 15 -7 31 -1 13 5 26 6 29 2 5 -8 85 -6 93 2 3 3 15 1 28 -4 14 -5 26
-5 33 2 6 6 12 6 16 -1 5 -8 13 -8 27 -1 12 7 19 7 19 1 0 -7 8 -7 23 -2 12 5
31 5 42 1 11 -4 25 -3 32 2 7 5 14 5 18 -2 4 -7 12 -7 27 1 14 7 23 8 30 1 7
-7 19 -7 34 -2 15 6 24 6 24 0 0 -6 10 -6 26 0 14 6 23 7 20 2 -4 -7 17 -7 94
2 179 18 331 137 402 314 l23 57 0 570 c-1 314 -3 584 -6 600 -3 17 -10 40
-17 51 -6 12 -8 24 -5 28 3 3 0 6 -7 6 -7 0 -11 3 -7 6 17 17 -127 194 -159
194 -8 0 -14 4 -14 10 0 8 -53 37 -80 45 -3 0 -22 7 -43 14 -21 7 -70 14 -108
15 -38 0 -69 3 -69 6 0 3 -80 4 -178 2 -97 -1 -224 -2 -282 -2 -147 1 -192 0
-202 -6 -4 -3 -8 0 -8 6 0 6 -4 9 -9 6 -4 -3 -44 -5 -87 -5 -44 0 -95 -1 -114
-2 -19 -1 -39 -1 -45 -1 -39 2 -409 2 -488 0 -53 -2 -97 1 -97 5 0 5 -4 6 -8
3 -10 -6 -86 -8 -240 -4 -67 2 -122 1 -122 -2 0 -3 -21 -3 -47 0 -27 3 -87 3
-136 0 -48 -3 -87 -1 -87 3 0 5 -4 6 -8 3 -10 -6 -86 -8 -240 -4 -67 2 -122 1
-122 -2 0 -3 -21 -3 -47 0 -27 3 -87 3 -136 0 -48 -3 -87 -1 -87 3 0 5 -4 6
-8 3 -10 -6 -86 -8 -240 -4 -67 2 -122 1 -122 -2 0 -3 -21 -3 -47 0 -27 3 -87
3 -136 0 -48 -3 -87 -1 -87 3 0 5 -4 6 -8 3 -10 -6 -86 -8 -240 -4 -67 2 -122
-1 -122 -5 0 -5 -4 -6 -10 -2 -5 3 -94 6 -197 5 -103 0 -235 0 -293 1 -148 0
-193 -1 -202 -7 -4 -3 -8 0 -8 6 0 6 -4 9 -9 6 -4 -3 -44 -5 -87 -5 -44 0 -95
-1 -114 -2 -19 -1 -39 -1 -45 -1 -5 1 -98 1 -205 1 -107 1 -240 1 -295 1 -55
0 -128 1 -162 0 -35 0 -98 0 -140 0 -128 1 -176 -1 -185 -6 -4 -3 -8 -2 -8 3
0 4 -80 7 -178 5 -97 -1 -224 -2 -282 -2 -147 1 -192 0 -202 -6 -4 -3 -8 0 -8
6 0 6 -4 9 -9 6 -4 -3 -44 -5 -87 -5 -44 0 -95 -1 -114 -2 -19 -1 -39 -1 -45
-1 -5 1 -98 1 -205 1 -107 1 -240 1 -295 1 -55 0 -128 1 -162 0 -35 0 -98 0
-140 0 -128 1 -176 -1 -185 -6 -4 -3 -8 -2 -8 3 0 4 -49 8 -110 8 -60 0 -110
-2 -110 -5z"/>
</g>
</svg>
